<?xml version="1.0" encoding="UTF-8" standalone="no"?>
<!DOCTYPE svg PUBLIC "-//W3C//DTD SVG 1.1//EN" "http://www.w3.org/Graphics/SVG/1.1/DTD/svg11.dtd">
<svg width="100%" height="100%" viewBox="0 0 225 49" version="1.1" xmlns="http://www.w3.org/2000/svg" xmlns:xlink="http://www.w3.org/1999/xlink" xml:space="preserve" xmlns:serif="http://www.serif.com/" style="fill-rule:evenodd;clip-rule:evenodd;stroke-linejoin:round;stroke-miterlimit:2;">
    <g id="Artboard1" transform="matrix(1.02158,0,0,1,-0.0204315,-0.2575)">
        <rect x="0.02" y="0.258" width="220.248" height="48.742" style="fill:none;"/>
        <clipPath id="_clip1">
            <rect x="0.02" y="0.258" width="220.248" height="48.742"/>
        </clipPath>
        <g clip-path="url(#_clip1)">
            <g transform="matrix(0.00428495,0,0,0.00437741,-4.58817,-1.07832)">
                <path id="pwMkvDie0" d="M4978,10968L4060,10437L4060,8423C4060,7315 4064,6410 4068,6412C4073,6414 4235,6507 4428,6620L4780,6824L4782,8424L4785,10024L5345,10347C5652,10525 5907,10669 5910,10668C5914,10666 6856,10123 8003,9460L10090,8255L7730,5895L8885,4740C9520,4105 10040,3582 10040,3579C10040,3573 5946,1205 5915,1194C5906,1190 5049,1680 3850,2371L1800,3555L1803,5929L1805,8304L2165,8512L2525,8719L2530,6349L2535,3978L4215,3008C5139,2474 5900,2037 5905,2037C5911,2037 6576,2419 7383,2885L8852,3733L7776,4809C7184,5401 6700,5890 6700,5895C6700,5900 7193,6398 7796,7001C8884,8089 8893,8098 8869,8113C8824,8141 5926,9812 5914,9817C5903,9821 5111,9373 5082,9346C5073,9337 5070,9244 5072,8924L5075,8514L5470,8742C5687,8868 5874,8976 5886,8981C5904,8990 6031,8920 6811,8470C7308,8183 7717,7946 7720,7944C7722,7941 7263,7478 6700,6915L5675,5890L6675,4890C7297,4268 7671,3887 7665,3881C7636,3855 5913,2870 5900,2872C5891,2874 5292,3217 4567,3635L3250,4395L3248,7181L3245,9966L2162,9341L1080,8716L1082,5927L1085,3137L3490,1748C4923,921 5902,361 5912,364C5922,366 7120,1055 8576,1896L11222,3423L8750,5895L10005,7150C10695,7840 11256,8408 11252,8412C11239,8425 5909,11500 5902,11499C5898,11499 5482,11260 4978,10968Z" style="fill-rule:nonzero;"/>
                <path id="p90kygTEr" d="M4420,6172L4065,5965L4062,5431C4061,5124 4064,4900 4069,4902C4074,4903 4235,4997 4428,5110L4779,5315L4780,5848C4780,6140 4779,6380 4778,6380C4776,6379 4615,6286 4420,6172Z" style="fill-rule:nonzero;"/>
            </g>
            <g transform="matrix(2.65767,0,0,2.71501,-105.414,-11.2387)">
                <path d="M57.83,17.312L57.83,8.854L61.208,8.854C62.032,8.854 62.676,9.042 63.14,9.418C63.605,9.793 63.837,10.337 63.837,11.049C63.837,11.553 63.731,11.959 63.52,12.267C63.309,12.575 63.056,12.785 62.76,12.897L62.76,12.969C62.978,13.025 63.184,13.133 63.378,13.293C63.571,13.453 63.728,13.667 63.847,13.934C63.967,14.202 64.027,14.536 64.027,14.936C64.027,15.432 63.92,15.858 63.705,16.214C63.49,16.57 63.181,16.842 62.776,17.03C62.371,17.218 61.884,17.312 61.314,17.312L57.83,17.312ZM59.297,15.932L61.271,15.932C61.44,15.932 61.593,15.916 61.731,15.884C61.868,15.852 61.989,15.806 62.095,15.746C62.2,15.686 62.287,15.61 62.354,15.518C62.42,15.426 62.471,15.322 62.507,15.206C62.542,15.09 62.559,14.964 62.559,14.828C62.559,14.668 62.54,14.528 62.501,14.408C62.463,14.288 62.408,14.186 62.338,14.102C62.267,14.018 62.179,13.948 62.074,13.893C61.968,13.837 61.849,13.797 61.715,13.773C61.581,13.749 61.433,13.737 61.271,13.737L59.297,13.737L59.297,15.932ZM59.297,12.357L61.092,12.357C61.528,12.357 61.85,12.267 62.058,12.087C62.266,11.907 62.369,11.633 62.369,11.265C62.369,10.921 62.267,10.663 62.063,10.491C61.859,10.319 61.535,10.233 61.092,10.233L59.297,10.233L59.297,12.357Z" style="fill-rule:nonzero;"/>
                <path d="M65.336,17.312L65.336,8.854L68.715,8.854C69.538,8.854 70.182,9.042 70.647,9.418C71.111,9.793 71.343,10.337 71.343,11.049C71.343,11.553 71.238,11.959 71.027,12.267C70.815,12.575 70.562,12.785 70.266,12.897L70.266,12.969C70.485,13.025 70.691,13.133 70.884,13.293C71.078,13.453 71.234,13.667 71.354,13.934C71.474,14.202 71.533,14.536 71.533,14.936C71.533,15.432 71.426,15.858 71.211,16.214C70.997,16.57 70.687,16.842 70.282,17.03C69.878,17.218 69.39,17.312 68.82,17.312L65.336,17.312ZM66.804,15.932L68.778,15.932C68.947,15.932 69.1,15.916 69.237,15.884C69.374,15.852 69.496,15.806 69.601,15.746C69.707,15.686 69.793,15.61 69.86,15.518C69.927,15.426 69.978,15.322 70.013,15.206C70.048,15.09 70.066,14.964 70.066,14.828C70.066,14.668 70.047,14.528 70.008,14.408C69.969,14.288 69.915,14.186 69.844,14.102C69.774,14.018 69.686,13.948 69.58,13.893C69.475,13.837 69.355,13.797 69.221,13.773C69.088,13.749 68.94,13.737 68.778,13.737L66.804,13.737L66.804,15.932ZM66.804,12.357L68.598,12.357C69.035,12.357 69.357,12.267 69.564,12.087C69.772,11.907 69.876,11.633 69.876,11.265C69.876,10.921 69.774,10.663 69.57,10.491C69.366,10.319 69.042,10.233 68.598,10.233L66.804,10.233L66.804,12.357Z" style="fill-rule:nonzero;"/>
                <rect x="72.843" y="8.854" width="1.468" height="8.458" style="fill-rule:nonzero;"/>
                <path d="M78.618,17.312L78.618,8.854L80.085,8.854L80.085,15.872L83.664,15.872L83.664,17.312L78.618,17.312Z" style="fill-rule:nonzero;"/>
                <path d="M86.953,17.432C86.374,17.432 85.871,17.3 85.446,17.037C85.02,16.774 84.693,16.406 84.464,15.934C84.236,15.461 84.121,14.911 84.121,14.283C84.121,13.655 84.236,13.107 84.465,12.639C84.693,12.171 85.02,11.807 85.445,11.547C85.87,11.287 86.371,11.157 86.948,11.157C87.531,11.157 88.033,11.287 88.453,11.547C88.873,11.807 89.198,12.171 89.427,12.639C89.655,13.107 89.77,13.654 89.77,14.282C89.77,14.91 89.656,15.461 89.429,15.933C89.201,16.406 88.877,16.774 88.455,17.037C88.033,17.3 87.533,17.432 86.953,17.432ZM86.947,16.04C87.394,16.04 87.74,15.88 87.986,15.56C88.232,15.24 88.355,14.812 88.355,14.276C88.355,13.741 88.233,13.319 87.989,13.011C87.745,12.703 87.399,12.549 86.952,12.549C86.501,12.549 86.152,12.703 85.906,13.011C85.659,13.319 85.536,13.741 85.536,14.276C85.536,14.812 85.661,15.24 85.911,15.56C86.161,15.88 86.506,16.04 86.947,16.04Z" style="fill-rule:nonzero;"/>
                <path d="M93.106,19.591C92.705,19.591 92.295,19.529 91.876,19.405C91.457,19.281 91.1,19.107 90.804,18.883L91.195,17.576C91.371,17.704 91.566,17.816 91.781,17.912C91.996,18.008 92.216,18.082 92.441,18.134C92.666,18.186 92.877,18.212 93.074,18.212C93.637,18.212 94.069,18.078 94.368,17.81C94.667,17.542 94.816,17.14 94.816,16.604L94.816,15.848L94.732,15.848C94.584,16.192 94.355,16.48 94.046,16.712C93.736,16.944 93.373,17.06 92.958,17.06C92.458,17.06 92.02,16.938 91.644,16.694C91.267,16.45 90.973,16.106 90.762,15.662C90.551,15.218 90.445,14.7 90.445,14.108C90.445,13.517 90.551,12.999 90.762,12.555C90.973,12.111 91.267,11.767 91.644,11.523C92.02,11.279 92.458,11.157 92.958,11.157C93.373,11.157 93.738,11.273 94.051,11.505C94.364,11.737 94.598,12.045 94.753,12.429L94.816,12.429L94.816,11.277L96.157,11.277L96.157,16.508C96.157,17.132 96.034,17.674 95.788,18.134C95.541,18.593 95.191,18.951 94.737,19.207C94.283,19.463 93.739,19.591 93.106,19.591ZM93.307,15.764C93.743,15.764 94.088,15.614 94.341,15.314C94.595,15.014 94.721,14.608 94.721,14.096C94.721,13.593 94.595,13.193 94.341,12.897C94.088,12.601 93.743,12.453 93.307,12.453C92.87,12.453 92.524,12.601 92.267,12.897C92.01,13.193 91.881,13.593 91.881,14.096C91.881,14.608 92.01,15.014 92.267,15.314C92.524,15.614 92.87,15.764 93.307,15.764Z" style="fill-rule:nonzero;"/>
                <path d="M97.276,10.101L97.276,8.422L98.965,8.422L98.965,10.101L97.276,10.101ZM97.403,17.312L97.403,11.277L98.87,11.277L98.87,17.312L97.403,17.312Z" style="fill-rule:nonzero;"/>
                <path d="M102.27,17.432C101.946,17.432 101.631,17.406 101.325,17.354C101.019,17.302 100.739,17.228 100.486,17.132C100.232,17.036 100.014,16.912 99.831,16.76L100.211,15.596C100.401,15.732 100.609,15.842 100.834,15.926C101.059,16.01 101.29,16.07 101.526,16.106C101.761,16.142 101.985,16.16 102.196,16.16C102.611,16.16 102.925,16.116 103.136,16.028C103.347,15.94 103.452,15.788 103.452,15.572C103.452,15.388 103.396,15.256 103.284,15.176C103.171,15.096 102.981,15.036 102.713,14.996L101.499,14.816C100.964,14.736 100.568,14.534 100.312,14.21C100.055,13.887 99.926,13.505 99.926,13.065C99.926,12.697 100.016,12.371 100.195,12.087C100.375,11.803 100.649,11.577 101.019,11.409C101.388,11.241 101.851,11.157 102.407,11.157C102.682,11.157 102.958,11.181 103.236,11.229C103.514,11.277 103.771,11.351 104.007,11.451C104.243,11.551 104.434,11.673 104.582,11.817L104.17,12.957C104.023,12.829 103.85,12.727 103.653,12.651C103.456,12.575 103.25,12.519 103.035,12.483C102.821,12.447 102.611,12.429 102.407,12.429C102.013,12.429 101.716,12.477 101.515,12.573C101.315,12.669 101.214,12.821 101.214,13.029C101.214,13.205 101.269,13.331 101.378,13.407C101.487,13.483 101.665,13.541 101.911,13.581L103.062,13.785C103.646,13.889 104.072,14.086 104.339,14.378C104.607,14.67 104.741,15.064 104.741,15.56C104.741,15.944 104.64,16.276 104.44,16.556C104.239,16.836 103.954,17.052 103.584,17.204C103.215,17.356 102.777,17.432 102.27,17.432Z" style="fill-rule:nonzero;"/>
                <path d="M108.122,17.432C107.369,17.432 106.81,17.218 106.444,16.791C106.078,16.364 105.895,15.755 105.895,14.965L105.895,12.645L104.849,12.645L104.849,11.277L106,11.277L106,9.609L107.36,9.609L107.36,11.277L109.284,11.277L109.284,12.645L107.362,12.645L107.362,14.903C107.362,15.277 107.447,15.558 107.616,15.746C107.784,15.934 108.038,16.028 108.376,16.028C108.523,16.028 108.67,16.012 108.814,15.98C108.958,15.948 109.097,15.904 109.231,15.848L109.431,17.132C109.241,17.236 109.036,17.312 108.814,17.36C108.592,17.408 108.362,17.432 108.122,17.432Z" style="fill-rule:nonzero;"/>
                <path d="M109.917,10.101L109.917,8.422L111.606,8.422L111.606,10.101L109.917,10.101ZM110.044,17.312L110.044,11.277L111.511,11.277L111.511,17.312L110.044,17.312Z" style="fill-rule:nonzero;"/>
                <path d="M115.302,17.432C114.731,17.432 114.235,17.302 113.813,17.042C113.391,16.782 113.062,16.418 112.826,15.95C112.59,15.482 112.472,14.932 112.472,14.3C112.472,13.661 112.59,13.105 112.826,12.633C113.062,12.161 113.392,11.797 113.818,11.541C114.244,11.285 114.742,11.157 115.312,11.157C115.72,11.157 116.1,11.223 116.452,11.355C116.804,11.487 117.089,11.657 117.307,11.865L116.864,13.113C116.667,12.945 116.449,12.813 116.209,12.717C115.97,12.621 115.731,12.573 115.492,12.573C114.999,12.573 114.617,12.719 114.346,13.011C114.075,13.303 113.94,13.733 113.94,14.3C113.94,14.868 114.075,15.296 114.346,15.584C114.617,15.872 114.995,16.016 115.481,16.016C115.727,16.016 115.968,15.968 116.204,15.872C116.44,15.776 116.649,15.652 116.832,15.5L117.286,16.736C117.068,16.944 116.787,17.112 116.442,17.24C116.097,17.368 115.717,17.432 115.302,17.432Z" style="fill-rule:nonzero;"/>
                <path d="M120.074,17.432C119.75,17.432 119.435,17.406 119.129,17.354C118.822,17.302 118.543,17.228 118.289,17.132C118.036,17.036 117.818,16.912 117.635,16.76L118.015,15.596C118.205,15.732 118.412,15.842 118.638,15.926C118.863,16.01 119.093,16.07 119.329,16.106C119.565,16.142 119.788,16.16 120,16.16C120.415,16.16 120.728,16.116 120.939,16.028C121.15,15.94 121.256,15.788 121.256,15.572C121.256,15.388 121.2,15.256 121.087,15.176C120.974,15.096 120.784,15.036 120.517,14.996L119.303,14.816C118.768,14.736 118.372,14.534 118.115,14.21C117.858,13.887 117.73,13.505 117.73,13.065C117.73,12.697 117.819,12.371 117.999,12.087C118.178,11.803 118.453,11.577 118.822,11.409C119.192,11.241 119.655,11.157 120.211,11.157C120.485,11.157 120.762,11.181 121.04,11.229C121.318,11.277 121.574,11.351 121.81,11.451C122.046,11.551 122.238,11.673 122.386,11.817L121.974,12.957C121.826,12.829 121.654,12.727 121.457,12.651C121.26,12.575 121.054,12.519 120.839,12.483C120.624,12.447 120.415,12.429 120.211,12.429C119.817,12.429 119.519,12.477 119.319,12.573C119.118,12.669 119.018,12.821 119.018,13.029C119.018,13.205 119.072,13.331 119.181,13.407C119.291,13.483 119.468,13.541 119.715,13.581L120.865,13.785C121.45,13.889 121.875,14.086 122.143,14.378C122.41,14.67 122.544,15.064 122.544,15.56C122.544,15.944 122.444,16.276 122.243,16.556C122.043,16.836 121.757,17.052 121.388,17.204C121.018,17.356 120.58,17.432 120.074,17.432Z" style="fill-rule:nonzero;"/>
            </g>
        </g>
    </g>
</svg>
